<mxfile host="app.diagrams.net" modified="2023-05-11T08:53:34.799Z" agent="Mozilla/5.0 (Windows NT 10.0; Win64; x64) AppleWebKit/537.36 (KHTML, like Gecko) Chrome/111.0.0.0 Safari/537.36 OPR/97.0.0.0" etag="5MWOzwed352w8pf2YV00" version="21.2.9" type="device">
  <diagram name="Page-1" id="4DCoUrSAxSeY8P6KLvrX">
    <mxGraphModel dx="2177" dy="751" grid="1" gridSize="10" guides="1" tooltips="1" connect="1" arrows="1" fold="1" page="1" pageScale="1" pageWidth="850" pageHeight="1100" math="0" shadow="0">
      <root>
        <mxCell id="0" />
        <mxCell id="1" parent="0" />
        <mxCell id="CUjz-e8doJSZxIUFtqPX-1" value="GUI" style="swimlane;fontStyle=1;align=center;verticalAlign=top;childLayout=stackLayout;horizontal=1;startSize=26;horizontalStack=0;resizeParent=1;resizeParentMax=0;resizeLast=0;collapsible=1;marginBottom=0;whiteSpace=wrap;html=1;" vertex="1" parent="1">
          <mxGeometry x="90" y="120" width="210" height="90" as="geometry">
            <mxRectangle x="160" y="130" width="60" height="30" as="alternateBounds" />
          </mxGeometry>
        </mxCell>
        <mxCell id="CUjz-e8doJSZxIUFtqPX-3" value="" style="line;strokeWidth=1;fillColor=none;align=left;verticalAlign=middle;spacingTop=-1;spacingLeft=3;spacingRight=3;rotatable=0;labelPosition=right;points=[];portConstraint=eastwest;strokeColor=inherit;" vertex="1" parent="CUjz-e8doJSZxIUFtqPX-1">
          <mxGeometry y="26" width="210" height="8" as="geometry" />
        </mxCell>
        <mxCell id="CUjz-e8doJSZxIUFtqPX-4" value="+ OnClick(): void" style="text;strokeColor=none;fillColor=none;align=left;verticalAlign=top;spacingLeft=4;spacingRight=4;overflow=hidden;rotatable=0;points=[[0,0.5],[1,0.5]];portConstraint=eastwest;whiteSpace=wrap;html=1;" vertex="1" parent="CUjz-e8doJSZxIUFtqPX-1">
          <mxGeometry y="34" width="210" height="26" as="geometry" />
        </mxCell>
        <mxCell id="CUjz-e8doJSZxIUFtqPX-5" value="OnValueChanged(value bool): void&amp;nbsp;&lt;br&gt;" style="text;strokeColor=none;fillColor=none;align=left;verticalAlign=top;spacingLeft=4;spacingRight=4;overflow=hidden;rotatable=0;points=[[0,0.5],[1,0.5]];portConstraint=eastwest;whiteSpace=wrap;html=1;" vertex="1" parent="CUjz-e8doJSZxIUFtqPX-1">
          <mxGeometry y="60" width="210" height="30" as="geometry" />
        </mxCell>
        <mxCell id="CUjz-e8doJSZxIUFtqPX-6" value="KalkulatoraPogas" style="swimlane;fontStyle=1;align=center;verticalAlign=top;childLayout=stackLayout;horizontal=1;startSize=26;horizontalStack=0;resizeParent=1;resizeParentMax=0;resizeLast=0;collapsible=1;marginBottom=0;whiteSpace=wrap;html=1;" vertex="1" parent="1">
          <mxGeometry x="100" y="320" width="160" height="90" as="geometry" />
        </mxCell>
        <mxCell id="CUjz-e8doJSZxIUFtqPX-10" value="" style="endArrow=diamondThin;endFill=0;endSize=24;html=1;rounded=0;entryX=0.432;entryY=1.016;entryDx=0;entryDy=0;entryPerimeter=0;" edge="1" parent="CUjz-e8doJSZxIUFtqPX-6" target="CUjz-e8doJSZxIUFtqPX-5">
          <mxGeometry width="160" relative="1" as="geometry">
            <mxPoint x="80" as="sourcePoint" />
            <mxPoint x="240" as="targetPoint" />
          </mxGeometry>
        </mxCell>
        <mxCell id="CUjz-e8doJSZxIUFtqPX-7" value="+ PogasLabel: Text" style="text;strokeColor=none;fillColor=none;align=left;verticalAlign=top;spacingLeft=4;spacingRight=4;overflow=hidden;rotatable=0;points=[[0,0.5],[1,0.5]];portConstraint=eastwest;whiteSpace=wrap;html=1;" vertex="1" parent="CUjz-e8doJSZxIUFtqPX-6">
          <mxGeometry y="26" width="160" height="26" as="geometry" />
        </mxCell>
        <mxCell id="CUjz-e8doJSZxIUFtqPX-8" value="" style="line;strokeWidth=1;fillColor=none;align=left;verticalAlign=middle;spacingTop=-1;spacingLeft=3;spacingRight=3;rotatable=0;labelPosition=right;points=[];portConstraint=eastwest;strokeColor=inherit;" vertex="1" parent="CUjz-e8doJSZxIUFtqPX-6">
          <mxGeometry y="52" width="160" height="8" as="geometry" />
        </mxCell>
        <mxCell id="CUjz-e8doJSZxIUFtqPX-9" value="+ nospiestaPoga(): void" style="text;strokeColor=none;fillColor=none;align=left;verticalAlign=top;spacingLeft=4;spacingRight=4;overflow=hidden;rotatable=0;points=[[0,0.5],[1,0.5]];portConstraint=eastwest;whiteSpace=wrap;html=1;" vertex="1" parent="CUjz-e8doJSZxIUFtqPX-6">
          <mxGeometry y="60" width="160" height="30" as="geometry" />
        </mxCell>
        <mxCell id="CUjz-e8doJSZxIUFtqPX-11" value="1...*" style="text;html=1;align=center;verticalAlign=middle;resizable=0;points=[];autosize=1;strokeColor=none;fillColor=none;" vertex="1" parent="1">
          <mxGeometry x="175" y="290" width="40" height="30" as="geometry" />
        </mxCell>
        <mxCell id="CUjz-e8doJSZxIUFtqPX-12" value="1" style="text;html=1;align=center;verticalAlign=middle;resizable=0;points=[];autosize=1;strokeColor=none;fillColor=none;" vertex="1" parent="1">
          <mxGeometry x="195" y="208" width="30" height="30" as="geometry" />
        </mxCell>
        <mxCell id="CUjz-e8doJSZxIUFtqPX-13" value="Satur" style="text;html=1;align=center;verticalAlign=middle;resizable=0;points=[];autosize=1;strokeColor=none;fillColor=none;rotation=-90;" vertex="1" parent="1">
          <mxGeometry x="165" y="260" width="50" height="30" as="geometry" />
        </mxCell>
        <mxCell id="CUjz-e8doJSZxIUFtqPX-14" value="DarbibuParvaldnieks" style="swimlane;fontStyle=1;align=center;verticalAlign=top;childLayout=stackLayout;horizontal=1;startSize=26;horizontalStack=0;resizeParent=1;resizeParentMax=0;resizeLast=0;collapsible=1;marginBottom=0;whiteSpace=wrap;html=1;" vertex="1" parent="1">
          <mxGeometry x="420" y="160" width="310" height="418" as="geometry">
            <mxRectangle x="420" y="160" width="160" height="30" as="alternateBounds" />
          </mxGeometry>
        </mxCell>
        <mxCell id="CUjz-e8doJSZxIUFtqPX-15" value="+ ciparuLogs: Text" style="text;strokeColor=none;fillColor=none;align=left;verticalAlign=top;spacingLeft=4;spacingRight=4;overflow=hidden;rotatable=0;points=[[0,0.5],[1,0.5]];portConstraint=eastwest;whiteSpace=wrap;html=1;" vertex="1" parent="CUjz-e8doJSZxIUFtqPX-14">
          <mxGeometry y="26" width="310" height="26" as="geometry" />
        </mxCell>
        <mxCell id="CUjz-e8doJSZxIUFtqPX-22" value="+ darbibasZime: Text" style="text;strokeColor=none;fillColor=none;align=left;verticalAlign=top;spacingLeft=4;spacingRight=4;overflow=hidden;rotatable=0;points=[[0,0.5],[1,0.5]];portConstraint=eastwest;whiteSpace=wrap;html=1;" vertex="1" parent="CUjz-e8doJSZxIUFtqPX-14">
          <mxGeometry y="52" width="310" height="20" as="geometry" />
        </mxCell>
        <mxCell id="CUjz-e8doJSZxIUFtqPX-23" value="- klume: bool" style="text;strokeColor=none;fillColor=none;align=left;verticalAlign=top;spacingLeft=4;spacingRight=4;overflow=hidden;rotatable=0;points=[[0,0.5],[1,0.5]];portConstraint=eastwest;whiteSpace=wrap;html=1;" vertex="1" parent="CUjz-e8doJSZxIUFtqPX-14">
          <mxGeometry y="72" width="310" height="20" as="geometry" />
        </mxCell>
        <mxCell id="CUjz-e8doJSZxIUFtqPX-24" value="- vissKartiba: bool" style="text;strokeColor=none;fillColor=none;align=left;verticalAlign=top;spacingLeft=4;spacingRight=4;overflow=hidden;rotatable=0;points=[[0,0.5],[1,0.5]];portConstraint=eastwest;whiteSpace=wrap;html=1;" vertex="1" parent="CUjz-e8doJSZxIUFtqPX-14">
          <mxGeometry y="92" width="310" height="20" as="geometry" />
        </mxCell>
        <mxCell id="CUjz-e8doJSZxIUFtqPX-28" value="- specialaDarbiba: bool" style="text;strokeColor=none;fillColor=none;align=left;verticalAlign=top;spacingLeft=4;spacingRight=4;overflow=hidden;rotatable=0;points=[[0,0.5],[1,0.5]];portConstraint=eastwest;whiteSpace=wrap;html=1;" vertex="1" parent="CUjz-e8doJSZxIUFtqPX-14">
          <mxGeometry y="112" width="310" height="22" as="geometry" />
        </mxCell>
        <mxCell id="CUjz-e8doJSZxIUFtqPX-27" value="- pasreizVertiba: double" style="text;strokeColor=none;fillColor=none;align=left;verticalAlign=top;spacingLeft=4;spacingRight=4;overflow=hidden;rotatable=0;points=[[0,0.5],[1,0.5]];portConstraint=eastwest;whiteSpace=wrap;html=1;" vertex="1" parent="CUjz-e8doJSZxIUFtqPX-14">
          <mxGeometry y="134" width="310" height="20" as="geometry" />
        </mxCell>
        <mxCell id="CUjz-e8doJSZxIUFtqPX-26" value="- uzglabataVertiba: double" style="text;strokeColor=none;fillColor=none;align=left;verticalAlign=top;spacingLeft=4;spacingRight=4;overflow=hidden;rotatable=0;points=[[0,0.5],[1,0.5]];portConstraint=eastwest;whiteSpace=wrap;html=1;" vertex="1" parent="CUjz-e8doJSZxIUFtqPX-14">
          <mxGeometry y="154" width="310" height="20" as="geometry" />
        </mxCell>
        <mxCell id="CUjz-e8doJSZxIUFtqPX-25" value="- rezultats: double" style="text;strokeColor=none;fillColor=none;align=left;verticalAlign=top;spacingLeft=4;spacingRight=4;overflow=hidden;rotatable=0;points=[[0,0.5],[1,0.5]];portConstraint=eastwest;whiteSpace=wrap;html=1;" vertex="1" parent="CUjz-e8doJSZxIUFtqPX-14">
          <mxGeometry y="174" width="310" height="20" as="geometry" />
        </mxCell>
        <mxCell id="CUjz-e8doJSZxIUFtqPX-30" value="- uzglabataZime: char" style="text;strokeColor=none;fillColor=none;align=left;verticalAlign=top;spacingLeft=4;spacingRight=4;overflow=hidden;rotatable=0;points=[[0,0.5],[1,0.5]];portConstraint=eastwest;whiteSpace=wrap;html=1;" vertex="1" parent="CUjz-e8doJSZxIUFtqPX-14">
          <mxGeometry y="194" width="310" height="20" as="geometry" />
        </mxCell>
        <mxCell id="CUjz-e8doJSZxIUFtqPX-29" value="+ komataPoga: Button" style="text;strokeColor=none;fillColor=none;align=left;verticalAlign=top;spacingLeft=4;spacingRight=4;overflow=hidden;rotatable=0;points=[[0,0.5],[1,0.5]];portConstraint=eastwest;whiteSpace=wrap;html=1;" vertex="1" parent="CUjz-e8doJSZxIUFtqPX-14">
          <mxGeometry y="214" width="310" height="20" as="geometry" />
        </mxCell>
        <mxCell id="CUjz-e8doJSZxIUFtqPX-16" value="" style="line;strokeWidth=1;fillColor=none;align=left;verticalAlign=middle;spacingTop=-1;spacingLeft=3;spacingRight=3;rotatable=0;labelPosition=right;points=[];portConstraint=eastwest;strokeColor=inherit;" vertex="1" parent="CUjz-e8doJSZxIUFtqPX-14">
          <mxGeometry y="234" width="310" height="8" as="geometry" />
        </mxCell>
        <mxCell id="CUjz-e8doJSZxIUFtqPX-17" value="- Start(): void" style="text;strokeColor=none;fillColor=none;align=left;verticalAlign=top;spacingLeft=4;spacingRight=4;overflow=hidden;rotatable=0;points=[[0,0.5],[1,0.5]];portConstraint=eastwest;whiteSpace=wrap;html=1;" vertex="1" parent="CUjz-e8doJSZxIUFtqPX-14">
          <mxGeometry y="242" width="310" height="26" as="geometry" />
        </mxCell>
        <mxCell id="CUjz-e8doJSZxIUFtqPX-34" value="- Update(): void" style="text;strokeColor=none;fillColor=none;align=left;verticalAlign=top;spacingLeft=4;spacingRight=4;overflow=hidden;rotatable=0;points=[[0,0.5],[1,0.5]];portConstraint=eastwest;whiteSpace=wrap;html=1;" vertex="1" parent="CUjz-e8doJSZxIUFtqPX-14">
          <mxGeometry y="268" width="310" height="22" as="geometry" />
        </mxCell>
        <mxCell id="CUjz-e8doJSZxIUFtqPX-33" value="- attiritVertibas(): void" style="text;strokeColor=none;fillColor=none;align=left;verticalAlign=top;spacingLeft=4;spacingRight=4;overflow=hidden;rotatable=0;points=[[0,0.5],[1,0.5]];portConstraint=eastwest;whiteSpace=wrap;html=1;" vertex="1" parent="CUjz-e8doJSZxIUFtqPX-14">
          <mxGeometry y="290" width="310" height="26" as="geometry" />
        </mxCell>
        <mxCell id="CUjz-e8doJSZxIUFtqPX-32" value="- atjauninatDisplejaVertibu(): void" style="text;strokeColor=none;fillColor=none;align=left;verticalAlign=top;spacingLeft=4;spacingRight=4;overflow=hidden;rotatable=0;points=[[0,0.5],[1,0.5]];portConstraint=eastwest;whiteSpace=wrap;html=1;" vertex="1" parent="CUjz-e8doJSZxIUFtqPX-14">
          <mxGeometry y="316" width="310" height="26" as="geometry" />
        </mxCell>
        <mxCell id="CUjz-e8doJSZxIUFtqPX-31" value="-&amp;nbsp;kalkulatoraDarbibas(darbibasOperators: char): void" style="text;strokeColor=none;fillColor=none;align=left;verticalAlign=top;spacingLeft=4;spacingRight=4;overflow=hidden;rotatable=0;points=[[0,0.5],[1,0.5]];portConstraint=eastwest;whiteSpace=wrap;html=1;" vertex="1" parent="CUjz-e8doJSZxIUFtqPX-14">
          <mxGeometry y="342" width="310" height="38" as="geometry" />
        </mxCell>
        <mxCell id="CUjz-e8doJSZxIUFtqPX-35" value="+ nosakaNospiestoPogu(kuraPoga: char): void" style="text;strokeColor=none;fillColor=none;align=left;verticalAlign=top;spacingLeft=4;spacingRight=4;overflow=hidden;rotatable=0;points=[[0,0.5],[1,0.5]];portConstraint=eastwest;whiteSpace=wrap;html=1;" vertex="1" parent="CUjz-e8doJSZxIUFtqPX-14">
          <mxGeometry y="380" width="310" height="38" as="geometry" />
        </mxCell>
        <mxCell id="CUjz-e8doJSZxIUFtqPX-37" value="" style="endArrow=diamondThin;endFill=1;endSize=24;html=1;rounded=0;entryX=0.704;entryY=1.094;entryDx=0;entryDy=0;entryPerimeter=0;exitX=-0.013;exitY=0.945;exitDx=0;exitDy=0;exitPerimeter=0;" edge="1" parent="1" source="CUjz-e8doJSZxIUFtqPX-23" target="CUjz-e8doJSZxIUFtqPX-5">
          <mxGeometry width="160" relative="1" as="geometry">
            <mxPoint x="420" y="230" as="sourcePoint" />
            <mxPoint x="240" y="230" as="targetPoint" />
            <Array as="points">
              <mxPoint x="238" y="250" />
            </Array>
          </mxGeometry>
        </mxCell>
        <mxCell id="CUjz-e8doJSZxIUFtqPX-38" value="Satur" style="text;html=1;align=center;verticalAlign=middle;resizable=0;points=[];autosize=1;strokeColor=none;fillColor=none;rotation=0;" vertex="1" parent="1">
          <mxGeometry x="300" y="220" width="50" height="30" as="geometry" />
        </mxCell>
        <mxCell id="CUjz-e8doJSZxIUFtqPX-39" value="1" style="text;html=1;align=center;verticalAlign=middle;resizable=0;points=[];autosize=1;strokeColor=none;fillColor=none;" vertex="1" parent="1">
          <mxGeometry x="235" y="228" width="30" height="30" as="geometry" />
        </mxCell>
        <mxCell id="CUjz-e8doJSZxIUFtqPX-40" value="1" style="text;html=1;align=center;verticalAlign=middle;resizable=0;points=[];autosize=1;strokeColor=none;fillColor=none;" vertex="1" parent="1">
          <mxGeometry x="385" y="228" width="30" height="30" as="geometry" />
        </mxCell>
        <mxCell id="CUjz-e8doJSZxIUFtqPX-41" value="" style="endArrow=diamondThin;endFill=1;endSize=24;html=1;rounded=0;entryX=0.593;entryY=0.967;entryDx=0;entryDy=0;entryPerimeter=0;exitX=0;exitY=0.5;exitDx=0;exitDy=0;" edge="1" parent="1" source="CUjz-e8doJSZxIUFtqPX-35" target="CUjz-e8doJSZxIUFtqPX-9">
          <mxGeometry width="160" relative="1" as="geometry">
            <mxPoint x="190" y="480" as="sourcePoint" />
            <mxPoint x="360" y="490" as="targetPoint" />
            <Array as="points">
              <mxPoint x="195" y="559" />
            </Array>
          </mxGeometry>
        </mxCell>
        <mxCell id="CUjz-e8doJSZxIUFtqPX-42" value="Uzrauga" style="text;html=1;align=center;verticalAlign=middle;resizable=0;points=[];autosize=1;strokeColor=none;fillColor=none;" vertex="1" parent="1">
          <mxGeometry x="265" y="520" width="70" height="30" as="geometry" />
        </mxCell>
        <mxCell id="CUjz-e8doJSZxIUFtqPX-43" value="1...*" style="text;html=1;align=center;verticalAlign=middle;resizable=0;points=[];autosize=1;strokeColor=none;fillColor=none;" vertex="1" parent="1">
          <mxGeometry x="200" y="420" width="40" height="30" as="geometry" />
        </mxCell>
        <mxCell id="CUjz-e8doJSZxIUFtqPX-44" value="1" style="text;html=1;align=center;verticalAlign=middle;resizable=0;points=[];autosize=1;strokeColor=none;fillColor=none;" vertex="1" parent="1">
          <mxGeometry x="385" y="520" width="30" height="30" as="geometry" />
        </mxCell>
        <mxCell id="CUjz-e8doJSZxIUFtqPX-45" value="PapildusSadala" style="swimlane;fontStyle=1;align=center;verticalAlign=top;childLayout=stackLayout;horizontal=1;startSize=26;horizontalStack=0;resizeParent=1;resizeParentMax=0;resizeLast=0;collapsible=1;marginBottom=0;whiteSpace=wrap;html=1;" vertex="1" parent="1">
          <mxGeometry x="-180" y="470" width="290" height="100" as="geometry" />
        </mxCell>
        <mxCell id="CUjz-e8doJSZxIUFtqPX-49" value="" style="endArrow=diamondThin;endFill=0;endSize=24;html=1;rounded=0;entryX=-0.011;entryY=-0.081;entryDx=0;entryDy=0;entryPerimeter=0;" edge="1" parent="CUjz-e8doJSZxIUFtqPX-45" target="CUjz-e8doJSZxIUFtqPX-5">
          <mxGeometry width="160" relative="1" as="geometry">
            <mxPoint x="140" as="sourcePoint" />
            <mxPoint x="300" as="targetPoint" />
            <Array as="points">
              <mxPoint x="140" y="-290" />
            </Array>
          </mxGeometry>
        </mxCell>
        <mxCell id="CUjz-e8doJSZxIUFtqPX-46" value="+ papildusSadala: GameObject" style="text;strokeColor=none;fillColor=none;align=left;verticalAlign=top;spacingLeft=4;spacingRight=4;overflow=hidden;rotatable=0;points=[[0,0.5],[1,0.5]];portConstraint=eastwest;whiteSpace=wrap;html=1;" vertex="1" parent="CUjz-e8doJSZxIUFtqPX-45">
          <mxGeometry y="26" width="290" height="26" as="geometry" />
        </mxCell>
        <mxCell id="CUjz-e8doJSZxIUFtqPX-47" value="" style="line;strokeWidth=1;fillColor=none;align=left;verticalAlign=middle;spacingTop=-1;spacingLeft=3;spacingRight=3;rotatable=0;labelPosition=right;points=[];portConstraint=eastwest;strokeColor=inherit;" vertex="1" parent="CUjz-e8doJSZxIUFtqPX-45">
          <mxGeometry y="52" width="290" height="8" as="geometry" />
        </mxCell>
        <mxCell id="CUjz-e8doJSZxIUFtqPX-48" value="+ papildusSadalasAttelosana(vertiba: bool): void" style="text;strokeColor=none;fillColor=none;align=left;verticalAlign=top;spacingLeft=4;spacingRight=4;overflow=hidden;rotatable=0;points=[[0,0.5],[1,0.5]];portConstraint=eastwest;whiteSpace=wrap;html=1;" vertex="1" parent="CUjz-e8doJSZxIUFtqPX-45">
          <mxGeometry y="60" width="290" height="40" as="geometry" />
        </mxCell>
        <mxCell id="CUjz-e8doJSZxIUFtqPX-50" value="Satur" style="text;html=1;align=center;verticalAlign=middle;resizable=0;points=[];autosize=1;strokeColor=none;fillColor=none;rotation=-90;" vertex="1" parent="1">
          <mxGeometry x="-50" y="320" width="50" height="30" as="geometry" />
        </mxCell>
        <mxCell id="CUjz-e8doJSZxIUFtqPX-51" value="1" style="text;html=1;align=center;verticalAlign=middle;resizable=0;points=[];autosize=1;strokeColor=none;fillColor=none;" vertex="1" parent="1">
          <mxGeometry x="-40" y="440" width="30" height="30" as="geometry" />
        </mxCell>
        <mxCell id="CUjz-e8doJSZxIUFtqPX-52" value="1" style="text;html=1;align=center;verticalAlign=middle;resizable=0;points=[];autosize=1;strokeColor=none;fillColor=none;" vertex="1" parent="1">
          <mxGeometry x="60" y="178" width="30" height="30" as="geometry" />
        </mxCell>
      </root>
    </mxGraphModel>
  </diagram>
</mxfile>
